<mxfile host="app.diagrams.net" agent="Mozilla/5.0 (X11; Linux x86_64) AppleWebKit/537.36 (KHTML, like Gecko) Chrome/137.0.0.0 Safari/537.36" version="28.0.6">
  <diagram id="C5RBs43oDa-KdzZeNtuy" name="Page-1">
    <mxGraphModel dx="1021" dy="107" grid="1" gridSize="10" guides="1" tooltips="1" connect="1" arrows="1" fold="1" page="1" pageScale="1" pageWidth="827" pageHeight="1169" math="0" shadow="0">
      <root>
        <mxCell id="WIyWlLk6GJQsqaUBKTNV-0" />
        <mxCell id="WIyWlLk6GJQsqaUBKTNV-1" parent="WIyWlLk6GJQsqaUBKTNV-0" />
        <mxCell id="M7CGMbNuYNeq0SnUNNgH-6" value="ทบทวนสัญลักษณ์" style="swimlane;fontFamily=Sarabun;fontSource=https%3A%2F%2Ffonts.googleapis.com%2Fcss%3Ffamily%3DSarabun;" parent="WIyWlLk6GJQsqaUBKTNV-1" vertex="1">
          <mxGeometry x="-720" y="20" width="640" height="290" as="geometry" />
        </mxCell>
        <mxCell id="M7CGMbNuYNeq0SnUNNgH-2" value="&lt;font data-font-src=&quot;https://fonts.googleapis.com/css?family=Sarabun&quot; face=&quot;Sarabun&quot;&gt;เริ่มต้น&lt;/font&gt;" style="ellipse;whiteSpace=wrap;html=1;" parent="M7CGMbNuYNeq0SnUNNgH-6" vertex="1">
          <mxGeometry x="20" y="40" width="130" height="30" as="geometry" />
        </mxCell>
        <mxCell id="M7CGMbNuYNeq0SnUNNgH-5" value="" style="endArrow=classic;html=1;rounded=0;" parent="M7CGMbNuYNeq0SnUNNgH-6" edge="1">
          <mxGeometry width="50" height="50" relative="1" as="geometry">
            <mxPoint x="84.5" y="70" as="sourcePoint" />
            <mxPoint x="84.5" y="120" as="targetPoint" />
          </mxGeometry>
        </mxCell>
        <mxCell id="M7CGMbNuYNeq0SnUNNgH-3" value="&lt;font face=&quot;Sarabun&quot;&gt;สิ้นสุด&lt;/font&gt;" style="ellipse;whiteSpace=wrap;html=1;" parent="M7CGMbNuYNeq0SnUNNgH-6" vertex="1">
          <mxGeometry x="150" y="90" width="130" height="30" as="geometry" />
        </mxCell>
        <mxCell id="M7CGMbNuYNeq0SnUNNgH-4" value="" style="endArrow=classic;html=1;rounded=0;" parent="M7CGMbNuYNeq0SnUNNgH-6" edge="1">
          <mxGeometry width="50" height="50" relative="1" as="geometry">
            <mxPoint x="214.5" y="40" as="sourcePoint" />
            <mxPoint x="214.5" y="90" as="targetPoint" />
          </mxGeometry>
        </mxCell>
        <mxCell id="mvioNwK95yMqdUQ73LqQ-0" value="กระบวนการ" style="rounded=0;whiteSpace=wrap;html=1;fontFamily=Sarabun;fontSource=https%3A%2F%2Ffonts.googleapis.com%2Fcss%3Ffamily%3DSarabun;" parent="M7CGMbNuYNeq0SnUNNgH-6" vertex="1">
          <mxGeometry x="320" y="70" width="120" height="30" as="geometry" />
        </mxCell>
        <mxCell id="mvioNwK95yMqdUQ73LqQ-1" value="" style="endArrow=classic;html=1;rounded=0;" parent="M7CGMbNuYNeq0SnUNNgH-6" edge="1">
          <mxGeometry width="50" height="50" relative="1" as="geometry">
            <mxPoint x="379" y="40" as="sourcePoint" />
            <mxPoint x="379.5" y="70" as="targetPoint" />
          </mxGeometry>
        </mxCell>
        <mxCell id="mvioNwK95yMqdUQ73LqQ-2" value="" style="endArrow=classic;html=1;rounded=0;" parent="M7CGMbNuYNeq0SnUNNgH-6" edge="1">
          <mxGeometry width="50" height="50" relative="1" as="geometry">
            <mxPoint x="379.75" y="100" as="sourcePoint" />
            <mxPoint x="380.25" y="130" as="targetPoint" />
          </mxGeometry>
        </mxCell>
        <mxCell id="mvioNwK95yMqdUQ73LqQ-3" value="ประโยคเงื่อนไข" style="rhombus;whiteSpace=wrap;html=1;fontFamily=Sarabun;fontSource=https%3A%2F%2Ffonts.googleapis.com%2Fcss%3Ffamily%3DSarabun;" parent="M7CGMbNuYNeq0SnUNNgH-6" vertex="1">
          <mxGeometry x="490" y="60" width="100" height="60" as="geometry" />
        </mxCell>
        <mxCell id="mvioNwK95yMqdUQ73LqQ-4" value="" style="endArrow=classic;html=1;rounded=0;" parent="M7CGMbNuYNeq0SnUNNgH-6" edge="1">
          <mxGeometry width="50" height="50" relative="1" as="geometry">
            <mxPoint x="539.71" y="30" as="sourcePoint" />
            <mxPoint x="540.21" y="60" as="targetPoint" />
          </mxGeometry>
        </mxCell>
        <mxCell id="mvioNwK95yMqdUQ73LqQ-5" value="" style="endArrow=classic;html=1;rounded=0;" parent="M7CGMbNuYNeq0SnUNNgH-6" edge="1">
          <mxGeometry width="50" height="50" relative="1" as="geometry">
            <mxPoint x="539.71" y="120" as="sourcePoint" />
            <mxPoint x="540" y="175" as="targetPoint" />
          </mxGeometry>
        </mxCell>
        <mxCell id="mvioNwK95yMqdUQ73LqQ-7" value="จริง" style="edgeLabel;html=1;align=center;verticalAlign=middle;resizable=0;points=[];fontFamily=Sarabun;fontSource=https%3A%2F%2Ffonts.googleapis.com%2Fcss%3Ffamily%3DSarabun;" parent="mvioNwK95yMqdUQ73LqQ-5" vertex="1" connectable="0">
          <mxGeometry x="-0.4142" y="-1" relative="1" as="geometry">
            <mxPoint as="offset" />
          </mxGeometry>
        </mxCell>
        <mxCell id="mvioNwK95yMqdUQ73LqQ-6" value="" style="endArrow=classic;html=1;rounded=0;exitX=1;exitY=0.5;exitDx=0;exitDy=0;" parent="M7CGMbNuYNeq0SnUNNgH-6" source="mvioNwK95yMqdUQ73LqQ-3" edge="1">
          <mxGeometry width="50" height="50" relative="1" as="geometry">
            <mxPoint x="620" y="95" as="sourcePoint" />
            <mxPoint x="610" y="175" as="targetPoint" />
            <Array as="points">
              <mxPoint x="610" y="90" />
            </Array>
          </mxGeometry>
        </mxCell>
        <mxCell id="mvioNwK95yMqdUQ73LqQ-8" value="&lt;font data-font-src=&quot;https://fonts.googleapis.com/css?family=Sarabun&quot; face=&quot;Sarabun&quot;&gt;เท็จ&lt;/font&gt;" style="edgeLabel;html=1;align=center;verticalAlign=middle;resizable=0;points=[];" parent="mvioNwK95yMqdUQ73LqQ-6" vertex="1" connectable="0">
          <mxGeometry x="-0.0019" y="-2" relative="1" as="geometry">
            <mxPoint as="offset" />
          </mxGeometry>
        </mxCell>
        <mxCell id="mvioNwK95yMqdUQ73LqQ-9" value="&lt;font data-font-src=&quot;https://fonts.googleapis.com/css?family=Sarabun&quot; face=&quot;Sarabun&quot;&gt;ฟังก์ชัน/โมดูล&lt;/font&gt;" style="shape=process;whiteSpace=wrap;html=1;backgroundOutline=1;" parent="M7CGMbNuYNeq0SnUNNgH-6" vertex="1">
          <mxGeometry x="25" y="180" width="120" height="30" as="geometry" />
        </mxCell>
        <mxCell id="mvioNwK95yMqdUQ73LqQ-11" value="" style="endArrow=classic;html=1;rounded=0;" parent="M7CGMbNuYNeq0SnUNNgH-6" edge="1">
          <mxGeometry width="50" height="50" relative="1" as="geometry">
            <mxPoint x="84.70999999999998" y="150" as="sourcePoint" />
            <mxPoint x="85.20999999999998" y="180" as="targetPoint" />
          </mxGeometry>
        </mxCell>
        <mxCell id="mvioNwK95yMqdUQ73LqQ-12" value="" style="endArrow=classic;html=1;rounded=0;" parent="M7CGMbNuYNeq0SnUNNgH-6" edge="1">
          <mxGeometry width="50" height="50" relative="1" as="geometry">
            <mxPoint x="84.70999999999998" y="210" as="sourcePoint" />
            <mxPoint x="85.20999999999998" y="240" as="targetPoint" />
          </mxGeometry>
        </mxCell>
        <mxCell id="mvioNwK95yMqdUQ73LqQ-13" value="" style="strokeWidth=2;html=1;shape=mxgraph.flowchart.start_2;whiteSpace=wrap;" parent="M7CGMbNuYNeq0SnUNNgH-6" vertex="1">
          <mxGeometry x="205" y="185" width="20" height="20" as="geometry" />
        </mxCell>
        <mxCell id="mvioNwK95yMqdUQ73LqQ-16" value="" style="endArrow=classic;html=1;rounded=0;" parent="M7CGMbNuYNeq0SnUNNgH-6" edge="1">
          <mxGeometry width="50" height="50" relative="1" as="geometry">
            <mxPoint x="214.70999999999998" y="155" as="sourcePoint" />
            <mxPoint x="215.20999999999998" y="185" as="targetPoint" />
          </mxGeometry>
        </mxCell>
        <mxCell id="mvioNwK95yMqdUQ73LqQ-17" value="" style="endArrow=classic;html=1;rounded=0;entryX=0;entryY=0.5;entryDx=0;entryDy=0;entryPerimeter=0;" parent="M7CGMbNuYNeq0SnUNNgH-6" target="mvioNwK95yMqdUQ73LqQ-13" edge="1">
          <mxGeometry width="50" height="50" relative="1" as="geometry">
            <mxPoint x="189.99999999999997" y="155" as="sourcePoint" />
            <mxPoint x="190.49999999999997" y="185" as="targetPoint" />
            <Array as="points">
              <mxPoint x="190" y="180" />
            </Array>
          </mxGeometry>
        </mxCell>
        <mxCell id="mvioNwK95yMqdUQ73LqQ-18" value="" style="endArrow=classic;html=1;rounded=0;entryX=1;entryY=0.5;entryDx=0;entryDy=0;entryPerimeter=0;" parent="M7CGMbNuYNeq0SnUNNgH-6" target="mvioNwK95yMqdUQ73LqQ-13" edge="1">
          <mxGeometry width="50" height="50" relative="1" as="geometry">
            <mxPoint x="239.99999999999997" y="155" as="sourcePoint" />
            <mxPoint x="240.49999999999997" y="185" as="targetPoint" />
            <Array as="points">
              <mxPoint x="240" y="180" />
            </Array>
          </mxGeometry>
        </mxCell>
        <mxCell id="mvioNwK95yMqdUQ73LqQ-19" value="" style="endArrow=classic;html=1;rounded=0;" parent="M7CGMbNuYNeq0SnUNNgH-6" edge="1">
          <mxGeometry width="50" height="50" relative="1" as="geometry">
            <mxPoint x="214.70999999999998" y="205" as="sourcePoint" />
            <mxPoint x="215.20999999999998" y="235" as="targetPoint" />
          </mxGeometry>
        </mxCell>
        <mxCell id="mvioNwK95yMqdUQ73LqQ-20" value="&lt;font data-font-src=&quot;https://fonts.googleapis.com/css?family=Sarabun&quot; face=&quot;Sarabun&quot;&gt;ตัวเชื่อม&lt;/font&gt;" style="text;html=1;align=center;verticalAlign=middle;resizable=0;points=[];autosize=1;strokeColor=none;fillColor=none;" parent="M7CGMbNuYNeq0SnUNNgH-6" vertex="1">
          <mxGeometry x="220" y="190" width="60" height="30" as="geometry" />
        </mxCell>
        <mxCell id="mvioNwK95yMqdUQ73LqQ-25" value="" style="endArrow=classic;html=1;rounded=0;" parent="M7CGMbNuYNeq0SnUNNgH-6" edge="1">
          <mxGeometry width="50" height="50" relative="1" as="geometry">
            <mxPoint x="353.71" y="165" as="sourcePoint" />
            <mxPoint x="354.21" y="195" as="targetPoint" />
          </mxGeometry>
        </mxCell>
        <mxCell id="mvioNwK95yMqdUQ73LqQ-21" value="" style="verticalLabelPosition=bottom;verticalAlign=top;html=1;shape=offPageConnector;rounded=0;size=0.5;" parent="M7CGMbNuYNeq0SnUNNgH-6" vertex="1">
          <mxGeometry x="339" y="195" width="30" height="30" as="geometry" />
        </mxCell>
        <mxCell id="mvioNwK95yMqdUQ73LqQ-26" value="" style="endArrow=classic;html=1;rounded=0;" parent="M7CGMbNuYNeq0SnUNNgH-6" edge="1">
          <mxGeometry width="50" height="50" relative="1" as="geometry">
            <mxPoint x="405.71" y="195" as="sourcePoint" />
            <mxPoint x="406.21" y="225" as="targetPoint" />
          </mxGeometry>
        </mxCell>
        <mxCell id="mvioNwK95yMqdUQ73LqQ-27" value="" style="verticalLabelPosition=bottom;verticalAlign=top;html=1;shape=offPageConnector;rounded=0;size=0.5;" parent="M7CGMbNuYNeq0SnUNNgH-6" vertex="1">
          <mxGeometry x="391" y="165" width="30" height="30" as="geometry" />
        </mxCell>
        <mxCell id="mvioNwK95yMqdUQ73LqQ-28" value="หน้าต่อไป" style="text;html=1;align=center;verticalAlign=middle;resizable=0;points=[];autosize=1;strokeColor=none;fillColor=none;fontFamily=Sarabun;fontSource=https%3A%2F%2Ffonts.googleapis.com%2Fcss%3Ffamily%3DSarabun;" parent="M7CGMbNuYNeq0SnUNNgH-6" vertex="1">
          <mxGeometry x="345" y="220" width="70" height="30" as="geometry" />
        </mxCell>
        <mxCell id="mvioNwK95yMqdUQ73LqQ-29" value="ก" style="text;html=1;align=center;verticalAlign=middle;resizable=0;points=[];autosize=1;strokeColor=none;fillColor=none;fontFamily=Sarabun;fontSource=https%3A%2F%2Ffonts.googleapis.com%2Fcss%3Ffamily%3DSarabun;" parent="M7CGMbNuYNeq0SnUNNgH-6" vertex="1">
          <mxGeometry x="339" y="190" width="30" height="30" as="geometry" />
        </mxCell>
        <mxCell id="mvioNwK95yMqdUQ73LqQ-30" value="ก" style="text;html=1;align=center;verticalAlign=middle;resizable=0;points=[];autosize=1;strokeColor=none;fillColor=none;fontFamily=Sarabun;fontSource=https%3A%2F%2Ffonts.googleapis.com%2Fcss%3Ffamily%3DSarabun;" parent="M7CGMbNuYNeq0SnUNNgH-6" vertex="1">
          <mxGeometry x="391" y="160" width="30" height="30" as="geometry" />
        </mxCell>
        <mxCell id="mvioNwK95yMqdUQ73LqQ-32" value="แสดงผล/รับค่า" style="shape=parallelogram;perimeter=parallelogramPerimeter;whiteSpace=wrap;html=1;fixedSize=1;fontFamily=Sarabun;fontSource=https%3A%2F%2Ffonts.googleapis.com%2Fcss%3Ffamily%3DSarabun;" parent="M7CGMbNuYNeq0SnUNNgH-6" vertex="1">
          <mxGeometry x="450" y="210" width="120" height="30" as="geometry" />
        </mxCell>
        <mxCell id="mvioNwK95yMqdUQ73LqQ-33" value="" style="endArrow=classic;html=1;rounded=0;" parent="M7CGMbNuYNeq0SnUNNgH-6" edge="1">
          <mxGeometry width="50" height="50" relative="1" as="geometry">
            <mxPoint x="509.71" y="180" as="sourcePoint" />
            <mxPoint x="510.21" y="210" as="targetPoint" />
          </mxGeometry>
        </mxCell>
        <mxCell id="mvioNwK95yMqdUQ73LqQ-34" value="" style="endArrow=classic;html=1;rounded=0;" parent="M7CGMbNuYNeq0SnUNNgH-6" edge="1">
          <mxGeometry width="50" height="50" relative="1" as="geometry">
            <mxPoint x="509.71" y="240" as="sourcePoint" />
            <mxPoint x="510.21" y="270" as="targetPoint" />
          </mxGeometry>
        </mxCell>
        <mxCell id="mvioNwK95yMqdUQ73LqQ-36" value="แก้ไขโจทย์ปัญหา" style="swimlane;fontFamily=Sarabun;fontSource=https%3A%2F%2Ffonts.googleapis.com%2Fcss%3Ffamily%3DSarabun;align=center;fontStyle=0" parent="WIyWlLk6GJQsqaUBKTNV-1" vertex="1">
          <mxGeometry x="-720" y="640" width="800" height="2600" as="geometry" />
        </mxCell>
        <mxCell id="YSKUlMTrCHVZmDdGb3bU-21" value="" style="edgeStyle=orthogonalEdgeStyle;rounded=0;orthogonalLoop=1;jettySize=auto;html=1;" edge="1" parent="mvioNwK95yMqdUQ73LqQ-36" source="mvioNwK95yMqdUQ73LqQ-35" target="1H6lGm5cBzu2rJrn3gc6-85">
          <mxGeometry relative="1" as="geometry" />
        </mxCell>
        <mxCell id="mvioNwK95yMqdUQ73LqQ-35" value="&lt;font data-font-src=&quot;https://fonts.googleapis.com/css?family=Sarabun&quot; face=&quot;Sarabun&quot;&gt;เริ่มต้น&lt;/font&gt;" style="ellipse;whiteSpace=wrap;html=1;" parent="mvioNwK95yMqdUQ73LqQ-36" vertex="1">
          <mxGeometry x="335" y="40" width="130" height="30" as="geometry" />
        </mxCell>
        <mxCell id="mvioNwK95yMqdUQ73LqQ-69" value="&lt;font face=&quot;Sarabun&quot;&gt;สิ้นสุด&lt;/font&gt;" style="ellipse;whiteSpace=wrap;html=1;" parent="mvioNwK95yMqdUQ73LqQ-36" vertex="1">
          <mxGeometry x="335.51" y="2430" width="130" height="30" as="geometry" />
        </mxCell>
        <mxCell id="YSKUlMTrCHVZmDdGb3bU-114" value="" style="edgeStyle=orthogonalEdgeStyle;rounded=0;orthogonalLoop=1;jettySize=auto;html=1;" edge="1" parent="mvioNwK95yMqdUQ73LqQ-36" source="1H6lGm5cBzu2rJrn3gc6-22" target="YSKUlMTrCHVZmDdGb3bU-113">
          <mxGeometry relative="1" as="geometry" />
        </mxCell>
        <mxCell id="YSKUlMTrCHVZmDdGb3bU-152" style="edgeStyle=orthogonalEdgeStyle;rounded=0;orthogonalLoop=1;jettySize=auto;html=1;" edge="1" parent="mvioNwK95yMqdUQ73LqQ-36" source="1H6lGm5cBzu2rJrn3gc6-22" target="YSKUlMTrCHVZmDdGb3bU-148">
          <mxGeometry relative="1" as="geometry">
            <mxPoint x="730" y="560" as="targetPoint" />
            <Array as="points">
              <mxPoint x="725" y="780" />
            </Array>
          </mxGeometry>
        </mxCell>
        <mxCell id="1H6lGm5cBzu2rJrn3gc6-22" value="ลูกค้าจะเลือกเพิ่มหรือไม่?" style="rhombus;whiteSpace=wrap;html=1;" parent="mvioNwK95yMqdUQ73LqQ-36" vertex="1">
          <mxGeometry x="310" y="740" width="180" height="80" as="geometry" />
        </mxCell>
        <mxCell id="1H6lGm5cBzu2rJrn3gc6-33" style="edgeStyle=orthogonalEdgeStyle;rounded=0;orthogonalLoop=1;jettySize=auto;html=1;exitX=0.5;exitY=1;exitDx=0;exitDy=0;" parent="mvioNwK95yMqdUQ73LqQ-36" edge="1">
          <mxGeometry relative="1" as="geometry">
            <mxPoint x="297.5" y="795" as="sourcePoint" />
            <mxPoint x="297.5" y="795" as="targetPoint" />
          </mxGeometry>
        </mxCell>
        <mxCell id="YSKUlMTrCHVZmDdGb3bU-22" value="" style="edgeStyle=orthogonalEdgeStyle;rounded=0;orthogonalLoop=1;jettySize=auto;html=1;" edge="1" parent="mvioNwK95yMqdUQ73LqQ-36" source="1H6lGm5cBzu2rJrn3gc6-85" target="YSKUlMTrCHVZmDdGb3bU-20">
          <mxGeometry relative="1" as="geometry" />
        </mxCell>
        <mxCell id="1H6lGm5cBzu2rJrn3gc6-85" value="&lt;div&gt;&lt;span style=&quot;background-color: transparent; color: light-dark(rgb(0, 0, 0), rgb(255, 255, 255));&quot;&gt;รายการเมนูสินค้าและราคา&lt;/span&gt;&lt;/div&gt;&lt;div&gt;&lt;span style=&quot;font-family: Sarabun; text-align: left; white-space: pre;&quot;&gt;&lt;div style=&quot;text-align: justify;&quot;&gt;&lt;span style=&quot;background-color: transparent; color: light-dark(rgb(0, 0, 0), rgb(255, 255, 255));&quot;&gt;&#x9;&lt;/span&gt;&lt;span style=&quot;background-color: transparent; color: light-dark(rgb(0, 0, 0), rgb(255, 255, 255)); white-space-collapse: collapse;&quot;&gt;โค้ก กระป๋องละ 10 บาท&lt;/span&gt;&lt;span style=&quot;background-color: transparent; color: light-dark(rgb(0, 0, 0), rgb(255, 255, 255));&quot;&gt;&#x9;&lt;/span&gt;&lt;span style=&quot;background-color: transparent; color: light-dark(rgb(0, 0, 0), rgb(255, 255, 255));&quot;&gt;&#x9;&lt;/span&gt;&lt;span style=&quot;background-color: transparent; color: light-dark(rgb(0, 0, 0), rgb(255, 255, 255));&quot;&gt;&#x9;&lt;/span&gt;&lt;span style=&quot;background-color: transparent; color: light-dark(rgb(0, 0, 0), rgb(255, 255, 255));&quot;&gt;&#x9;&lt;/span&gt;&lt;span style=&quot;background-color: transparent; color: light-dark(rgb(0, 0, 0), rgb(255, 255, 255)); white-space-collapse: collapse;&quot;&gt;เมล็ดทานตะวัน 13 บาท&lt;/span&gt;&lt;/div&gt;&lt;/span&gt;&lt;span style=&quot;font-family: Sarabun; text-align: left; white-space: pre;&quot;&gt;&lt;div style=&quot;text-align: justify;&quot;&gt;&lt;span style=&quot;background-color: transparent; color: light-dark(rgb(0, 0, 0), rgb(255, 255, 255));&quot;&gt;&#x9;&lt;/span&gt;&lt;span style=&quot;background-color: transparent; color: light-dark(rgb(0, 0, 0), rgb(255, 255, 255)); white-space-collapse: collapse;&quot;&gt;น้ำเขียว กระป๋องละ 12 บาท&lt;/span&gt;&lt;span style=&quot;background-color: transparent; color: light-dark(rgb(0, 0, 0), rgb(255, 255, 255));&quot;&gt;&#x9;&lt;/span&gt;&lt;span style=&quot;background-color: transparent; color: light-dark(rgb(0, 0, 0), rgb(255, 255, 255));&quot;&gt;&#x9;&lt;/span&gt;&lt;span style=&quot;background-color: transparent; color: light-dark(rgb(0, 0, 0), rgb(255, 255, 255));&quot;&gt;&#x9;&lt;/span&gt;&lt;span style=&quot;background-color: transparent; color: light-dark(rgb(0, 0, 0), rgb(255, 255, 255)); white-space-collapse: collapse;&quot;&gt;ถั่วแปบ 20 บาท&lt;/span&gt;&lt;/div&gt;&lt;/span&gt;&lt;span style=&quot;font-family: Sarabun; text-align: left; white-space: pre;&quot;&gt;&lt;div style=&quot;text-align: justify;&quot;&gt;&lt;span style=&quot;background-color: transparent; color: light-dark(rgb(0, 0, 0), rgb(255, 255, 255));&quot;&gt;&#x9;&lt;/span&gt;&lt;span style=&quot;background-color: transparent; color: light-dark(rgb(0, 0, 0), rgb(255, 255, 255)); white-space-collapse: collapse;&quot;&gt;อเมริกาโน่ 30 บาท&lt;/span&gt;&lt;span style=&quot;background-color: transparent; color: light-dark(rgb(0, 0, 0), rgb(255, 255, 255));&quot;&gt;&#x9;&lt;/span&gt;&lt;span style=&quot;background-color: transparent; color: light-dark(rgb(0, 0, 0), rgb(255, 255, 255));&quot;&gt;&#x9;&lt;/span&gt;&lt;span style=&quot;background-color: transparent; color: light-dark(rgb(0, 0, 0), rgb(255, 255, 255));&quot;&gt;&#x9;&lt;/span&gt;&lt;span style=&quot;background-color: transparent; color: light-dark(rgb(0, 0, 0), rgb(255, 255, 255));&quot;&gt;&#x9;&lt;/span&gt;&lt;span style=&quot;background-color: transparent; color: light-dark(rgb(0, 0, 0), rgb(255, 255, 255));&quot;&gt;&#x9;&lt;/span&gt;&lt;span style=&quot;background-color: transparent; color: light-dark(rgb(0, 0, 0), rgb(255, 255, 255)); white-space-collapse: collapse;&quot;&gt;จิ้นส้มหมก 15 บาท&lt;/span&gt;&lt;/div&gt;&lt;/span&gt;&lt;span style=&quot;font-family: Sarabun; text-align: left; white-space: pre;&quot;&gt;&lt;div style=&quot;text-align: justify;&quot;&gt;&lt;span style=&quot;background-color: transparent; color: light-dark(rgb(0, 0, 0), rgb(255, 255, 255));&quot;&gt;&#x9;&lt;/span&gt;&lt;span style=&quot;background-color: transparent; color: light-dark(rgb(0, 0, 0), rgb(255, 255, 255)); white-space-collapse: collapse;&quot;&gt;ลาเต้ หวานเจี๊ยบ 35 บาท&lt;/span&gt;&lt;span style=&quot;background-color: transparent; color: light-dark(rgb(0, 0, 0), rgb(255, 255, 255));&quot;&gt;&#x9;&lt;/span&gt;&lt;/div&gt;&lt;/span&gt;&lt;/div&gt;" style="shape=parallelogram;perimeter=parallelogramPerimeter;whiteSpace=wrap;html=1;fixedSize=1;" parent="mvioNwK95yMqdUQ73LqQ-36" vertex="1">
          <mxGeometry x="225" y="100" width="350" height="85" as="geometry" />
        </mxCell>
        <mxCell id="YSKUlMTrCHVZmDdGb3bU-24" value="" style="edgeStyle=orthogonalEdgeStyle;rounded=0;orthogonalLoop=1;jettySize=auto;html=1;" edge="1" parent="mvioNwK95yMqdUQ73LqQ-36" source="1H6lGm5cBzu2rJrn3gc6-92" target="YSKUlMTrCHVZmDdGb3bU-3">
          <mxGeometry relative="1" as="geometry" />
        </mxCell>
        <mxCell id="1H6lGm5cBzu2rJrn3gc6-92" value="ลูกค้าเลือกสินค้า" style="shape=parallelogram;perimeter=parallelogramPerimeter;whiteSpace=wrap;html=1;fixedSize=1;" parent="mvioNwK95yMqdUQ73LqQ-36" vertex="1">
          <mxGeometry x="340" y="310" width="120" height="30" as="geometry" />
        </mxCell>
        <mxCell id="YSKUlMTrCHVZmDdGb3bU-15" value="" style="edgeStyle=orthogonalEdgeStyle;rounded=0;orthogonalLoop=1;jettySize=auto;html=1;" edge="1" parent="mvioNwK95yMqdUQ73LqQ-36" source="YSKUlMTrCHVZmDdGb3bU-3" target="YSKUlMTrCHVZmDdGb3bU-10">
          <mxGeometry relative="1" as="geometry" />
        </mxCell>
        <mxCell id="YSKUlMTrCHVZmDdGb3bU-39" value="" style="edgeStyle=orthogonalEdgeStyle;rounded=0;orthogonalLoop=1;jettySize=auto;html=1;" edge="1" parent="mvioNwK95yMqdUQ73LqQ-36" source="YSKUlMTrCHVZmDdGb3bU-3" target="YSKUlMTrCHVZmDdGb3bU-28">
          <mxGeometry relative="1" as="geometry" />
        </mxCell>
        <mxCell id="YSKUlMTrCHVZmDdGb3bU-3" value="มีสินค้าเพียงพอหรือไม่?" style="rhombus;whiteSpace=wrap;html=1;" vertex="1" parent="mvioNwK95yMqdUQ73LqQ-36">
          <mxGeometry x="322.75" y="390" width="154.5" height="80" as="geometry" />
        </mxCell>
        <mxCell id="YSKUlMTrCHVZmDdGb3bU-6" value="Yes" style="text;html=1;align=center;verticalAlign=middle;whiteSpace=wrap;rounded=0;" vertex="1" parent="mvioNwK95yMqdUQ73LqQ-36">
          <mxGeometry x="400.01" y="470" width="60" height="30" as="geometry" />
        </mxCell>
        <mxCell id="YSKUlMTrCHVZmDdGb3bU-7" value="No" style="text;html=1;align=center;verticalAlign=middle;whiteSpace=wrap;rounded=0;" vertex="1" parent="mvioNwK95yMqdUQ73LqQ-36">
          <mxGeometry x="474.49" y="400" width="60" height="30" as="geometry" />
        </mxCell>
        <mxCell id="YSKUlMTrCHVZmDdGb3bU-10" value="แจ้งเตือนสินค้าหมด" style="shape=parallelogram;perimeter=parallelogramPerimeter;whiteSpace=wrap;html=1;fixedSize=1;" vertex="1" parent="mvioNwK95yMqdUQ73LqQ-36">
          <mxGeometry x="537.25" y="410" width="132.75" height="40" as="geometry" />
        </mxCell>
        <mxCell id="YSKUlMTrCHVZmDdGb3bU-128" value="" style="edgeStyle=orthogonalEdgeStyle;rounded=0;orthogonalLoop=1;jettySize=auto;html=1;entryX=0.5;entryY=0;entryDx=0;entryDy=0;" edge="1" parent="mvioNwK95yMqdUQ73LqQ-36" source="YSKUlMTrCHVZmDdGb3bU-17" target="1H6lGm5cBzu2rJrn3gc6-92">
          <mxGeometry relative="1" as="geometry" />
        </mxCell>
        <mxCell id="YSKUlMTrCHVZmDdGb3bU-17" value="" style="ellipse;whiteSpace=wrap;html=1;aspect=fixed;" vertex="1" parent="mvioNwK95yMqdUQ73LqQ-36">
          <mxGeometry x="394.49" y="270" width="10" height="10" as="geometry" />
        </mxCell>
        <mxCell id="YSKUlMTrCHVZmDdGb3bU-163" style="edgeStyle=orthogonalEdgeStyle;rounded=0;orthogonalLoop=1;jettySize=auto;html=1;entryX=0.5;entryY=0;entryDx=0;entryDy=0;" edge="1" parent="mvioNwK95yMqdUQ73LqQ-36" source="YSKUlMTrCHVZmDdGb3bU-20" target="YSKUlMTrCHVZmDdGb3bU-17">
          <mxGeometry relative="1" as="geometry" />
        </mxCell>
        <mxCell id="YSKUlMTrCHVZmDdGb3bU-20" value="แสดง&lt;span style=&quot;background-color: transparent; color: light-dark(rgb(0, 0, 0), rgb(255, 255, 255));&quot;&gt;เมนูสินค้าและราคา&lt;/span&gt;ว่าเหลืออะไรบ้าง" style="shape=parallelogram;perimeter=parallelogramPerimeter;whiteSpace=wrap;html=1;fixedSize=1;" vertex="1" parent="mvioNwK95yMqdUQ73LqQ-36">
          <mxGeometry x="275.01" y="210" width="250" height="40" as="geometry" />
        </mxCell>
        <mxCell id="YSKUlMTrCHVZmDdGb3bU-33" value="" style="edgeStyle=orthogonalEdgeStyle;rounded=0;orthogonalLoop=1;jettySize=auto;html=1;" edge="1" parent="mvioNwK95yMqdUQ73LqQ-36" source="YSKUlMTrCHVZmDdGb3bU-28" target="YSKUlMTrCHVZmDdGb3bU-30">
          <mxGeometry relative="1" as="geometry" />
        </mxCell>
        <mxCell id="YSKUlMTrCHVZmDdGb3bU-42" value="" style="edgeStyle=orthogonalEdgeStyle;rounded=0;orthogonalLoop=1;jettySize=auto;html=1;" edge="1" parent="mvioNwK95yMqdUQ73LqQ-36" source="YSKUlMTrCHVZmDdGb3bU-28" target="YSKUlMTrCHVZmDdGb3bU-41">
          <mxGeometry relative="1" as="geometry" />
        </mxCell>
        <mxCell id="YSKUlMTrCHVZmDdGb3bU-28" value="สินค้าหมดอายุหรือไม่" style="rhombus;whiteSpace=wrap;html=1;" vertex="1" parent="mvioNwK95yMqdUQ73LqQ-36">
          <mxGeometry x="332.5" y="510" width="135" height="80" as="geometry" />
        </mxCell>
        <mxCell id="YSKUlMTrCHVZmDdGb3bU-151" style="edgeStyle=orthogonalEdgeStyle;rounded=0;orthogonalLoop=1;jettySize=auto;html=1;entryX=0;entryY=0.5;entryDx=0;entryDy=0;" edge="1" parent="mvioNwK95yMqdUQ73LqQ-36" source="YSKUlMTrCHVZmDdGb3bU-30" target="YSKUlMTrCHVZmDdGb3bU-148">
          <mxGeometry relative="1" as="geometry" />
        </mxCell>
        <mxCell id="YSKUlMTrCHVZmDdGb3bU-30" value="แจ้งเตือนสินค้าหมดอายุ" style="shape=parallelogram;perimeter=parallelogramPerimeter;whiteSpace=wrap;html=1;fixedSize=1;" vertex="1" parent="mvioNwK95yMqdUQ73LqQ-36">
          <mxGeometry x="517.25" y="530" width="152.75" height="40" as="geometry" />
        </mxCell>
        <mxCell id="YSKUlMTrCHVZmDdGb3bU-44" value="" style="edgeStyle=orthogonalEdgeStyle;rounded=0;orthogonalLoop=1;jettySize=auto;html=1;" edge="1" parent="mvioNwK95yMqdUQ73LqQ-36" source="YSKUlMTrCHVZmDdGb3bU-41" target="1H6lGm5cBzu2rJrn3gc6-22">
          <mxGeometry relative="1" as="geometry" />
        </mxCell>
        <mxCell id="YSKUlMTrCHVZmDdGb3bU-41" value="แสดงรายการสินค้าทั้งหมด&lt;div&gt;ที่ลูกค้าเลือกพร้อมราคา&lt;/div&gt;" style="shape=parallelogram;perimeter=parallelogramPerimeter;whiteSpace=wrap;html=1;fixedSize=1;" vertex="1" parent="mvioNwK95yMqdUQ73LqQ-36">
          <mxGeometry x="300.13" y="640" width="199.75" height="40" as="geometry" />
        </mxCell>
        <mxCell id="YSKUlMTrCHVZmDdGb3bU-171" style="edgeStyle=orthogonalEdgeStyle;rounded=0;orthogonalLoop=1;jettySize=auto;html=1;exitX=0.5;exitY=1;exitDx=0;exitDy=0;entryX=0.5;entryY=0;entryDx=0;entryDy=0;" edge="1" parent="mvioNwK95yMqdUQ73LqQ-36" source="YSKUlMTrCHVZmDdGb3bU-48" target="YSKUlMTrCHVZmDdGb3bU-51">
          <mxGeometry relative="1" as="geometry" />
        </mxCell>
        <mxCell id="YSKUlMTrCHVZmDdGb3bU-48" value="ลูกค้าเลือกวิธีชำระเงิน" style="rounded=0;whiteSpace=wrap;html=1;" vertex="1" parent="mvioNwK95yMqdUQ73LqQ-36">
          <mxGeometry x="340.01" y="1020" width="120" height="40" as="geometry" />
        </mxCell>
        <mxCell id="YSKUlMTrCHVZmDdGb3bU-323" style="edgeStyle=orthogonalEdgeStyle;rounded=0;orthogonalLoop=1;jettySize=auto;html=1;entryX=0.5;entryY=0;entryDx=0;entryDy=0;" edge="1" parent="mvioNwK95yMqdUQ73LqQ-36" source="YSKUlMTrCHVZmDdGb3bU-50" target="YSKUlMTrCHVZmDdGb3bU-48">
          <mxGeometry relative="1" as="geometry" />
        </mxCell>
        <mxCell id="YSKUlMTrCHVZmDdGb3bU-50" value="แสดงวิธีการชำระเงิน&lt;br&gt;เงินสด,QR Code (PromptPay)" style="shape=parallelogram;perimeter=parallelogramPerimeter;whiteSpace=wrap;html=1;fixedSize=1;" vertex="1" parent="mvioNwK95yMqdUQ73LqQ-36">
          <mxGeometry x="303.5" y="930" width="192" height="60" as="geometry" />
        </mxCell>
        <mxCell id="YSKUlMTrCHVZmDdGb3bU-83" value="" style="edgeStyle=orthogonalEdgeStyle;rounded=0;orthogonalLoop=1;jettySize=auto;html=1;exitX=0;exitY=0.5;exitDx=0;exitDy=0;" edge="1" parent="mvioNwK95yMqdUQ73LqQ-36" source="YSKUlMTrCHVZmDdGb3bU-51" target="YSKUlMTrCHVZmDdGb3bU-54">
          <mxGeometry relative="1" as="geometry">
            <Array as="points">
              <mxPoint x="120" y="1114" />
            </Array>
          </mxGeometry>
        </mxCell>
        <mxCell id="YSKUlMTrCHVZmDdGb3bU-51" value="ชำระผ่าน QR Code หรือไม่?" style="rhombus;whiteSpace=wrap;html=1;" vertex="1" parent="mvioNwK95yMqdUQ73LqQ-36">
          <mxGeometry x="298.75" y="1074" width="202.5" height="80" as="geometry" />
        </mxCell>
        <mxCell id="YSKUlMTrCHVZmDdGb3bU-191" style="edgeStyle=orthogonalEdgeStyle;rounded=0;orthogonalLoop=1;jettySize=auto;html=1;exitX=0.5;exitY=1;exitDx=0;exitDy=0;entryX=0;entryY=0.5;entryDx=0;entryDy=0;" edge="1" parent="mvioNwK95yMqdUQ73LqQ-36" source="YSKUlMTrCHVZmDdGb3bU-54" target="YSKUlMTrCHVZmDdGb3bU-164">
          <mxGeometry relative="1" as="geometry">
            <mxPoint x="310" y="1290" as="targetPoint" />
            <Array as="points">
              <mxPoint x="120" y="1285" />
            </Array>
          </mxGeometry>
        </mxCell>
        <mxCell id="YSKUlMTrCHVZmDdGb3bU-54" value="แสดง&amp;nbsp;QR Code ชำระเงิน" style="shape=parallelogram;perimeter=parallelogramPerimeter;whiteSpace=wrap;html=1;fixedSize=1;" vertex="1" parent="mvioNwK95yMqdUQ73LqQ-36">
          <mxGeometry x="40" y="1158" width="160" height="40" as="geometry" />
        </mxCell>
        <mxCell id="YSKUlMTrCHVZmDdGb3bU-318" style="edgeStyle=orthogonalEdgeStyle;rounded=0;orthogonalLoop=1;jettySize=auto;html=1;" edge="1" parent="mvioNwK95yMqdUQ73LqQ-36" source="YSKUlMTrCHVZmDdGb3bU-59">
          <mxGeometry relative="1" as="geometry">
            <mxPoint x="398.98" y="1450" as="targetPoint" />
          </mxGeometry>
        </mxCell>
        <mxCell id="YSKUlMTrCHVZmDdGb3bU-319" style="edgeStyle=orthogonalEdgeStyle;rounded=0;orthogonalLoop=1;jettySize=auto;html=1;exitX=0.75;exitY=1;exitDx=0;exitDy=0;" edge="1" parent="mvioNwK95yMqdUQ73LqQ-36" source="YSKUlMTrCHVZmDdGb3bU-194">
          <mxGeometry relative="1" as="geometry">
            <mxPoint x="190" y="2385" as="targetPoint" />
            <mxPoint x="308.4791465517244" y="1380.034482758621" as="sourcePoint" />
            <Array as="points">
              <mxPoint x="40" y="1380" />
              <mxPoint x="40" y="2385" />
            </Array>
          </mxGeometry>
        </mxCell>
        <mxCell id="YSKUlMTrCHVZmDdGb3bU-59" value="ลูกค้าจ่ายเงินแล้วหรือไม่?" style="rhombus;whiteSpace=wrap;html=1;" vertex="1" parent="mvioNwK95yMqdUQ73LqQ-36">
          <mxGeometry x="318.48" y="1340.02" width="161" height="80" as="geometry" />
        </mxCell>
        <mxCell id="YSKUlMTrCHVZmDdGb3bU-81" style="edgeStyle=orthogonalEdgeStyle;rounded=0;orthogonalLoop=1;jettySize=auto;html=1;entryX=0;entryY=0.5;entryDx=0;entryDy=0;" edge="1" parent="mvioNwK95yMqdUQ73LqQ-36" source="YSKUlMTrCHVZmDdGb3bU-71" target="YSKUlMTrCHVZmDdGb3bU-80">
          <mxGeometry relative="1" as="geometry" />
        </mxCell>
        <mxCell id="YSKUlMTrCHVZmDdGb3bU-88" value="" style="edgeStyle=orthogonalEdgeStyle;rounded=0;orthogonalLoop=1;jettySize=auto;html=1;" edge="1" parent="mvioNwK95yMqdUQ73LqQ-36" source="YSKUlMTrCHVZmDdGb3bU-71" target="YSKUlMTrCHVZmDdGb3bU-72">
          <mxGeometry relative="1" as="geometry" />
        </mxCell>
        <mxCell id="YSKUlMTrCHVZmDdGb3bU-71" value="เงินพอหรือไม่?" style="rhombus;whiteSpace=wrap;html=1;" vertex="1" parent="mvioNwK95yMqdUQ73LqQ-36">
          <mxGeometry x="348.98" y="1520.02" width="100" height="80" as="geometry" />
        </mxCell>
        <mxCell id="YSKUlMTrCHVZmDdGb3bU-86" style="edgeStyle=orthogonalEdgeStyle;rounded=0;orthogonalLoop=1;jettySize=auto;html=1;exitX=1;exitY=0.5;exitDx=0;exitDy=0;entryX=1;entryY=0.5;entryDx=0;entryDy=0;" edge="1" parent="mvioNwK95yMqdUQ73LqQ-36" source="YSKUlMTrCHVZmDdGb3bU-72" target="YSKUlMTrCHVZmDdGb3bU-203">
          <mxGeometry relative="1" as="geometry">
            <mxPoint x="660" y="2000" as="targetPoint" />
            <mxPoint x="470" y="1630" as="sourcePoint" />
            <Array as="points">
              <mxPoint x="660" y="1670" />
              <mxPoint x="660" y="1975" />
            </Array>
          </mxGeometry>
        </mxCell>
        <mxCell id="YSKUlMTrCHVZmDdGb3bU-110" value="" style="edgeStyle=orthogonalEdgeStyle;rounded=0;orthogonalLoop=1;jettySize=auto;html=1;" edge="1" parent="mvioNwK95yMqdUQ73LqQ-36" source="YSKUlMTrCHVZmDdGb3bU-72" target="YSKUlMTrCHVZmDdGb3bU-74">
          <mxGeometry relative="1" as="geometry" />
        </mxCell>
        <mxCell id="YSKUlMTrCHVZmDdGb3bU-72" value="เงินเกินหรือไม่?" style="rhombus;whiteSpace=wrap;html=1;" vertex="1" parent="mvioNwK95yMqdUQ73LqQ-36">
          <mxGeometry x="339.5" y="1630.02" width="120" height="80" as="geometry" />
        </mxCell>
        <mxCell id="YSKUlMTrCHVZmDdGb3bU-118" value="" style="edgeStyle=orthogonalEdgeStyle;rounded=0;orthogonalLoop=1;jettySize=auto;html=1;" edge="1" parent="mvioNwK95yMqdUQ73LqQ-36" source="YSKUlMTrCHVZmDdGb3bU-74" target="YSKUlMTrCHVZmDdGb3bU-117">
          <mxGeometry relative="1" as="geometry" />
        </mxCell>
        <mxCell id="YSKUlMTrCHVZmDdGb3bU-74" value="คำนวณเงินทอน" style="rounded=0;whiteSpace=wrap;html=1;" vertex="1" parent="mvioNwK95yMqdUQ73LqQ-36">
          <mxGeometry x="339.5" y="1740.02" width="120" height="30" as="geometry" />
        </mxCell>
        <mxCell id="YSKUlMTrCHVZmDdGb3bU-192" style="edgeStyle=orthogonalEdgeStyle;rounded=0;orthogonalLoop=1;jettySize=auto;html=1;exitX=0.5;exitY=0;exitDx=0;exitDy=0;entryX=1;entryY=0.5;entryDx=0;entryDy=0;" edge="1" parent="mvioNwK95yMqdUQ73LqQ-36" source="YSKUlMTrCHVZmDdGb3bU-80" target="YSKUlMTrCHVZmDdGb3bU-172">
          <mxGeometry relative="1" as="geometry">
            <mxPoint x="540" y="1180" as="targetPoint" />
            <Array as="points">
              <mxPoint x="660" y="1185" />
            </Array>
          </mxGeometry>
        </mxCell>
        <mxCell id="YSKUlMTrCHVZmDdGb3bU-80" value="แจ้งเตือนให้ใส่เงินเพิ่ม" style="shape=parallelogram;perimeter=parallelogramPerimeter;whiteSpace=wrap;html=1;fixedSize=1;" vertex="1" parent="mvioNwK95yMqdUQ73LqQ-36">
          <mxGeometry x="589.49" y="1540.02" width="140" height="40" as="geometry" />
        </mxCell>
        <mxCell id="YSKUlMTrCHVZmDdGb3bU-204" style="edgeStyle=orthogonalEdgeStyle;rounded=0;orthogonalLoop=1;jettySize=auto;html=1;entryX=0.5;entryY=0;entryDx=0;entryDy=0;" edge="1" parent="mvioNwK95yMqdUQ73LqQ-36" source="YSKUlMTrCHVZmDdGb3bU-89" target="YSKUlMTrCHVZmDdGb3bU-203">
          <mxGeometry relative="1" as="geometry" />
        </mxCell>
        <mxCell id="YSKUlMTrCHVZmDdGb3bU-89" value="จ่ายเงินทอน&amp;nbsp;" style="shape=parallelogram;perimeter=parallelogramPerimeter;whiteSpace=wrap;html=1;fixedSize=1;" vertex="1" parent="mvioNwK95yMqdUQ73LqQ-36">
          <mxGeometry x="339.49" y="1910.02" width="120" height="32" as="geometry" />
        </mxCell>
        <mxCell id="YSKUlMTrCHVZmDdGb3bU-206" value="" style="edgeStyle=orthogonalEdgeStyle;rounded=0;orthogonalLoop=1;jettySize=auto;html=1;" edge="1" parent="mvioNwK95yMqdUQ73LqQ-36" source="YSKUlMTrCHVZmDdGb3bU-94" target="YSKUlMTrCHVZmDdGb3bU-129">
          <mxGeometry relative="1" as="geometry" />
        </mxCell>
        <mxCell id="YSKUlMTrCHVZmDdGb3bU-94" value="จ่ายสินค้าให้ลูกค้า" style="shape=parallelogram;perimeter=parallelogramPerimeter;whiteSpace=wrap;html=1;fixedSize=1;direction=west;" vertex="1" parent="mvioNwK95yMqdUQ73LqQ-36">
          <mxGeometry x="330.13" y="2010" width="139.75" height="40" as="geometry" />
        </mxCell>
        <mxCell id="YSKUlMTrCHVZmDdGb3bU-109" value="" style="edgeStyle=orthogonalEdgeStyle;rounded=0;orthogonalLoop=1;jettySize=auto;html=1;" edge="1" parent="mvioNwK95yMqdUQ73LqQ-36" source="YSKUlMTrCHVZmDdGb3bU-101" target="YSKUlMTrCHVZmDdGb3bU-71">
          <mxGeometry relative="1" as="geometry" />
        </mxCell>
        <mxCell id="YSKUlMTrCHVZmDdGb3bU-101" value="&lt;span style=&quot;font-family: Sarabun; text-align: left; text-wrap-mode: nowrap;&quot;&gt;&lt;font&gt;มีเหรียญอะไรบ้าง? ธนบัตรอะไรบ้าง? อย่างละเท่าไหร่?&lt;/font&gt;&lt;/span&gt;" style="shape=parallelogram;perimeter=parallelogramPerimeter;whiteSpace=wrap;html=1;fixedSize=1;size=-10;" vertex="1" parent="mvioNwK95yMqdUQ73LqQ-36">
          <mxGeometry x="263.99" y="1450.02" width="269.99" height="40" as="geometry" />
        </mxCell>
        <mxCell id="YSKUlMTrCHVZmDdGb3bU-185" value="" style="edgeStyle=orthogonalEdgeStyle;rounded=0;orthogonalLoop=1;jettySize=auto;html=1;endArrow=none;endFill=0;startArrow=classic;startFill=1;" edge="1" parent="mvioNwK95yMqdUQ73LqQ-36" source="YSKUlMTrCHVZmDdGb3bU-172" target="YSKUlMTrCHVZmDdGb3bU-51">
          <mxGeometry relative="1" as="geometry" />
        </mxCell>
        <mxCell id="YSKUlMTrCHVZmDdGb3bU-190" style="edgeStyle=orthogonalEdgeStyle;rounded=0;orthogonalLoop=1;jettySize=auto;html=1;exitX=0.5;exitY=1;exitDx=0;exitDy=0;entryX=0.5;entryY=0;entryDx=0;entryDy=0;" edge="1" parent="mvioNwK95yMqdUQ73LqQ-36" source="YSKUlMTrCHVZmDdGb3bU-103" target="YSKUlMTrCHVZmDdGb3bU-164">
          <mxGeometry relative="1" as="geometry" />
        </mxCell>
        <mxCell id="YSKUlMTrCHVZmDdGb3bU-103" value="&lt;span style=&quot;color: rgb(0, 0, 0); font-family: Helvetica; font-size: 12px; font-style: normal; font-variant-ligatures: normal; font-variant-caps: normal; font-weight: 400; letter-spacing: normal; orphans: 2; text-align: center; text-indent: 0px; text-transform: none; widows: 2; word-spacing: 0px; -webkit-text-stroke-width: 0px; white-space: normal; background-color: rgb(236, 236, 236); text-decoration-thickness: initial; text-decoration-style: initial; text-decoration-color: initial; display: inline !important; float: none;&quot;&gt;ลูกค้าใส่เงินสด&lt;/span&gt;" style="shape=parallelogram;perimeter=parallelogramPerimeter;whiteSpace=wrap;html=1;fixedSize=1;" vertex="1" parent="mvioNwK95yMqdUQ73LqQ-36">
          <mxGeometry x="339.5" y="1220" width="120" height="34" as="geometry" />
        </mxCell>
        <mxCell id="YSKUlMTrCHVZmDdGb3bU-307" style="edgeStyle=orthogonalEdgeStyle;rounded=0;orthogonalLoop=1;jettySize=auto;html=1;entryX=0.5;entryY=0;entryDx=0;entryDy=0;" edge="1" parent="mvioNwK95yMqdUQ73LqQ-36" source="YSKUlMTrCHVZmDdGb3bU-112" target="YSKUlMTrCHVZmDdGb3bU-306">
          <mxGeometry relative="1" as="geometry" />
        </mxCell>
        <mxCell id="YSKUlMTrCHVZmDdGb3bU-112" value="&lt;span style=&quot;font-family: Sarabun; text-align: left; text-wrap-mode: nowrap;&quot;&gt;&lt;font&gt;สรุปยอดว่าเหลือเงินในตู้อีกเท่าไหร่&amp;nbsp;&lt;/font&gt;&lt;/span&gt;&lt;div&gt;&lt;span style=&quot;font-family: Sarabun; text-align: left; text-wrap-mode: nowrap;&quot;&gt;&lt;font&gt;เหลือเหรียญอะไรบ้าง? ธนบัตรอะไรบ้าง? อย่างละเท่าไหร่?&lt;/font&gt;&lt;/span&gt;&lt;br style=&quot;font-family: Sarabun; font-size: 14px; text-align: left; text-wrap-mode: nowrap;&quot;&gt;&lt;/div&gt;" style="rounded=0;whiteSpace=wrap;html=1;" vertex="1" parent="mvioNwK95yMqdUQ73LqQ-36">
          <mxGeometry x="248.82000000000002" y="2300" width="303.38" height="52" as="geometry" />
        </mxCell>
        <mxCell id="YSKUlMTrCHVZmDdGb3bU-116" value="" style="edgeStyle=orthogonalEdgeStyle;rounded=0;orthogonalLoop=1;jettySize=auto;html=1;" edge="1" parent="mvioNwK95yMqdUQ73LqQ-36" source="YSKUlMTrCHVZmDdGb3bU-113" target="YSKUlMTrCHVZmDdGb3bU-50">
          <mxGeometry relative="1" as="geometry" />
        </mxCell>
        <mxCell id="YSKUlMTrCHVZmDdGb3bU-113" value="แสดงยอดรวมที่ต้องชำระ" style="shape=parallelogram;perimeter=parallelogramPerimeter;whiteSpace=wrap;html=1;fixedSize=1;" vertex="1" parent="mvioNwK95yMqdUQ73LqQ-36">
          <mxGeometry x="319.01" y="860" width="162" height="40" as="geometry" />
        </mxCell>
        <mxCell id="YSKUlMTrCHVZmDdGb3bU-119" value="" style="edgeStyle=orthogonalEdgeStyle;rounded=0;orthogonalLoop=1;jettySize=auto;html=1;" edge="1" parent="mvioNwK95yMqdUQ73LqQ-36" source="YSKUlMTrCHVZmDdGb3bU-117" target="YSKUlMTrCHVZmDdGb3bU-89">
          <mxGeometry relative="1" as="geometry" />
        </mxCell>
        <mxCell id="YSKUlMTrCHVZmDdGb3bU-125" value="" style="edgeStyle=orthogonalEdgeStyle;rounded=0;orthogonalLoop=1;jettySize=auto;html=1;" edge="1" parent="mvioNwK95yMqdUQ73LqQ-36" source="YSKUlMTrCHVZmDdGb3bU-117" target="YSKUlMTrCHVZmDdGb3bU-120">
          <mxGeometry relative="1" as="geometry" />
        </mxCell>
        <mxCell id="YSKUlMTrCHVZmDdGb3bU-117" value="เครื่องมีเหรียญหรือธนบัตร&lt;div&gt;สำหรับทอนได้หรือไม่?&lt;/div&gt;" style="rhombus;whiteSpace=wrap;html=1;" vertex="1" parent="mvioNwK95yMqdUQ73LqQ-36">
          <mxGeometry x="308.48" y="1800.02" width="181" height="80" as="geometry" />
        </mxCell>
        <mxCell id="YSKUlMTrCHVZmDdGb3bU-126" value="" style="edgeStyle=orthogonalEdgeStyle;rounded=0;orthogonalLoop=1;jettySize=auto;html=1;" edge="1" parent="mvioNwK95yMqdUQ73LqQ-36" source="YSKUlMTrCHVZmDdGb3bU-120" target="YSKUlMTrCHVZmDdGb3bU-123">
          <mxGeometry relative="1" as="geometry" />
        </mxCell>
        <mxCell id="YSKUlMTrCHVZmDdGb3bU-120" value="แจ้งเตือนว่า&lt;div&gt;ไ&lt;span style=&quot;background-color: transparent; color: light-dark(rgb(0, 0, 0), rgb(255, 255, 255));&quot;&gt;ม่สามารถทอนเงินได้&lt;/span&gt;&lt;/div&gt;" style="shape=parallelogram;perimeter=parallelogramPerimeter;whiteSpace=wrap;html=1;fixedSize=1;" vertex="1" parent="mvioNwK95yMqdUQ73LqQ-36">
          <mxGeometry x="116.50000000000001" y="1820.02" width="158.51" height="40" as="geometry" />
        </mxCell>
        <mxCell id="YSKUlMTrCHVZmDdGb3bU-309" style="edgeStyle=orthogonalEdgeStyle;rounded=0;orthogonalLoop=1;jettySize=auto;html=1;entryX=0.5;entryY=0;entryDx=0;entryDy=0;" edge="1" parent="mvioNwK95yMqdUQ73LqQ-36" source="YSKUlMTrCHVZmDdGb3bU-123" target="YSKUlMTrCHVZmDdGb3bU-310">
          <mxGeometry relative="1" as="geometry">
            <mxPoint x="195.75499999999988" y="2280" as="targetPoint" />
          </mxGeometry>
        </mxCell>
        <mxCell id="YSKUlMTrCHVZmDdGb3bU-123" value="คืนเงินให้ลูกค้า" style="rounded=0;whiteSpace=wrap;html=1;" vertex="1" parent="mvioNwK95yMqdUQ73LqQ-36">
          <mxGeometry x="146.76" y="1908.02" width="97.99" height="34" as="geometry" />
        </mxCell>
        <mxCell id="YSKUlMTrCHVZmDdGb3bU-134" style="edgeStyle=orthogonalEdgeStyle;rounded=0;orthogonalLoop=1;jettySize=auto;html=1;entryX=0.5;entryY=0;entryDx=0;entryDy=0;" edge="1" parent="mvioNwK95yMqdUQ73LqQ-36" source="YSKUlMTrCHVZmDdGb3bU-129" target="YSKUlMTrCHVZmDdGb3bU-130">
          <mxGeometry relative="1" as="geometry" />
        </mxCell>
        <mxCell id="YSKUlMTrCHVZmDdGb3bU-129" value="หักสินค้าในสต็อก" style="rounded=0;whiteSpace=wrap;html=1;" vertex="1" parent="mvioNwK95yMqdUQ73LqQ-36">
          <mxGeometry x="340.52" y="2090" width="120" height="40" as="geometry" />
        </mxCell>
        <mxCell id="YSKUlMTrCHVZmDdGb3bU-139" style="edgeStyle=orthogonalEdgeStyle;rounded=0;orthogonalLoop=1;jettySize=auto;html=1;entryX=0.5;entryY=0;entryDx=0;entryDy=0;" edge="1" parent="mvioNwK95yMqdUQ73LqQ-36" source="YSKUlMTrCHVZmDdGb3bU-130" target="YSKUlMTrCHVZmDdGb3bU-137">
          <mxGeometry relative="1" as="geometry" />
        </mxCell>
        <mxCell id="YSKUlMTrCHVZmDdGb3bU-130" value="อัปเดตจำนวนสินค้า" style="rounded=0;whiteSpace=wrap;html=1;" vertex="1" parent="mvioNwK95yMqdUQ73LqQ-36">
          <mxGeometry x="340" y="2160" width="120" height="40" as="geometry" />
        </mxCell>
        <mxCell id="YSKUlMTrCHVZmDdGb3bU-140" style="edgeStyle=orthogonalEdgeStyle;rounded=0;orthogonalLoop=1;jettySize=auto;html=1;entryX=0.5;entryY=0;entryDx=0;entryDy=0;" edge="1" parent="mvioNwK95yMqdUQ73LqQ-36" source="YSKUlMTrCHVZmDdGb3bU-137" target="YSKUlMTrCHVZmDdGb3bU-112">
          <mxGeometry relative="1" as="geometry" />
        </mxCell>
        <mxCell id="YSKUlMTrCHVZmDdGb3bU-137" value="รวมยอดขายสินค้า" style="rounded=0;whiteSpace=wrap;html=1;" vertex="1" parent="mvioNwK95yMqdUQ73LqQ-36">
          <mxGeometry x="340.52" y="2230" width="120" height="37" as="geometry" />
        </mxCell>
        <mxCell id="YSKUlMTrCHVZmDdGb3bU-141" value="No" style="text;html=1;align=center;verticalAlign=middle;whiteSpace=wrap;rounded=0;" vertex="1" parent="mvioNwK95yMqdUQ73LqQ-36">
          <mxGeometry x="403.98" y="590" width="60" height="30" as="geometry" />
        </mxCell>
        <mxCell id="YSKUlMTrCHVZmDdGb3bU-142" value="Yes" style="text;html=1;align=center;verticalAlign=middle;whiteSpace=wrap;rounded=0;" vertex="1" parent="mvioNwK95yMqdUQ73LqQ-36">
          <mxGeometry x="465.51" y="515" width="60" height="30" as="geometry" />
        </mxCell>
        <mxCell id="YSKUlMTrCHVZmDdGb3bU-147" value="" style="edgeStyle=orthogonalEdgeStyle;rounded=0;orthogonalLoop=1;jettySize=auto;html=1;exitX=1;exitY=0.5;exitDx=0;exitDy=0;" edge="1" parent="mvioNwK95yMqdUQ73LqQ-36" source="YSKUlMTrCHVZmDdGb3bU-10">
          <mxGeometry relative="1" as="geometry">
            <mxPoint x="720" y="430" as="targetPoint" />
            <mxPoint x="-60" y="1070" as="sourcePoint" />
          </mxGeometry>
        </mxCell>
        <mxCell id="YSKUlMTrCHVZmDdGb3bU-154" style="edgeStyle=orthogonalEdgeStyle;rounded=0;orthogonalLoop=1;jettySize=auto;html=1;exitX=0.5;exitY=0;exitDx=0;exitDy=0;entryX=1;entryY=0.5;entryDx=0;entryDy=0;" edge="1" parent="mvioNwK95yMqdUQ73LqQ-36" source="YSKUlMTrCHVZmDdGb3bU-143" target="YSKUlMTrCHVZmDdGb3bU-17">
          <mxGeometry relative="1" as="geometry" />
        </mxCell>
        <mxCell id="YSKUlMTrCHVZmDdGb3bU-143" value="" style="ellipse;whiteSpace=wrap;html=1;aspect=fixed;" vertex="1" parent="mvioNwK95yMqdUQ73LqQ-36">
          <mxGeometry x="720" y="425" width="10" height="10" as="geometry" />
        </mxCell>
        <mxCell id="YSKUlMTrCHVZmDdGb3bU-153" style="edgeStyle=orthogonalEdgeStyle;rounded=0;orthogonalLoop=1;jettySize=auto;html=1;entryX=0.5;entryY=1;entryDx=0;entryDy=0;" edge="1" parent="mvioNwK95yMqdUQ73LqQ-36" source="YSKUlMTrCHVZmDdGb3bU-148" target="YSKUlMTrCHVZmDdGb3bU-143">
          <mxGeometry relative="1" as="geometry" />
        </mxCell>
        <mxCell id="YSKUlMTrCHVZmDdGb3bU-148" value="" style="ellipse;whiteSpace=wrap;html=1;aspect=fixed;" vertex="1" parent="mvioNwK95yMqdUQ73LqQ-36">
          <mxGeometry x="720" y="545" width="10" height="10" as="geometry" />
        </mxCell>
        <mxCell id="YSKUlMTrCHVZmDdGb3bU-155" value="Yes" style="text;html=1;align=center;verticalAlign=middle;whiteSpace=wrap;rounded=0;" vertex="1" parent="mvioNwK95yMqdUQ73LqQ-36">
          <mxGeometry x="491.69" y="750" width="60" height="30" as="geometry" />
        </mxCell>
        <mxCell id="YSKUlMTrCHVZmDdGb3bU-156" value="No" style="text;html=1;align=center;verticalAlign=middle;whiteSpace=wrap;rounded=0;" vertex="1" parent="mvioNwK95yMqdUQ73LqQ-36">
          <mxGeometry x="399.49" y="820" width="60" height="30" as="geometry" />
        </mxCell>
        <mxCell id="YSKUlMTrCHVZmDdGb3bU-157" value="Yes" style="text;html=1;align=center;verticalAlign=middle;whiteSpace=wrap;rounded=0;" vertex="1" parent="mvioNwK95yMqdUQ73LqQ-36">
          <mxGeometry x="243.5" y="1084" width="60" height="30" as="geometry" />
        </mxCell>
        <mxCell id="YSKUlMTrCHVZmDdGb3bU-188" value="" style="edgeStyle=orthogonalEdgeStyle;rounded=0;orthogonalLoop=1;jettySize=auto;html=1;" edge="1" parent="mvioNwK95yMqdUQ73LqQ-36" source="YSKUlMTrCHVZmDdGb3bU-164" target="YSKUlMTrCHVZmDdGb3bU-59">
          <mxGeometry relative="1" as="geometry" />
        </mxCell>
        <mxCell id="YSKUlMTrCHVZmDdGb3bU-164" value="" style="ellipse;whiteSpace=wrap;html=1;aspect=fixed;" vertex="1" parent="mvioNwK95yMqdUQ73LqQ-36">
          <mxGeometry x="394.49" y="1280" width="10" height="10" as="geometry" />
        </mxCell>
        <mxCell id="YSKUlMTrCHVZmDdGb3bU-186" value="" style="edgeStyle=orthogonalEdgeStyle;rounded=0;orthogonalLoop=1;jettySize=auto;html=1;endArrow=none;endFill=0;startArrow=classic;startFill=1;" edge="1" parent="mvioNwK95yMqdUQ73LqQ-36" source="YSKUlMTrCHVZmDdGb3bU-103" target="YSKUlMTrCHVZmDdGb3bU-172">
          <mxGeometry relative="1" as="geometry">
            <mxPoint x="-320" y="1860" as="sourcePoint" />
            <mxPoint x="-320" y="1794" as="targetPoint" />
          </mxGeometry>
        </mxCell>
        <mxCell id="YSKUlMTrCHVZmDdGb3bU-172" value="" style="ellipse;whiteSpace=wrap;html=1;aspect=fixed;" vertex="1" parent="mvioNwK95yMqdUQ73LqQ-36">
          <mxGeometry x="394.49" y="1180" width="10" height="10" as="geometry" />
        </mxCell>
        <mxCell id="YSKUlMTrCHVZmDdGb3bU-193" value="No" style="text;html=1;align=center;verticalAlign=middle;whiteSpace=wrap;rounded=0;" vertex="1" parent="mvioNwK95yMqdUQ73LqQ-36">
          <mxGeometry x="414.49" y="1150" width="60" height="30" as="geometry" />
        </mxCell>
        <mxCell id="YSKUlMTrCHVZmDdGb3bU-194" value="No" style="text;html=1;align=center;verticalAlign=middle;whiteSpace=wrap;rounded=0;" vertex="1" parent="mvioNwK95yMqdUQ73LqQ-36">
          <mxGeometry x="272.5" y="1350" width="60" height="30" as="geometry" />
        </mxCell>
        <mxCell id="YSKUlMTrCHVZmDdGb3bU-195" value="Yes" style="text;html=1;align=center;verticalAlign=middle;whiteSpace=wrap;rounded=0;" vertex="1" parent="mvioNwK95yMqdUQ73LqQ-36">
          <mxGeometry x="403.98" y="1420.02" width="60" height="30" as="geometry" />
        </mxCell>
        <mxCell id="YSKUlMTrCHVZmDdGb3bU-196" value="Yes" style="text;html=1;align=center;verticalAlign=middle;whiteSpace=wrap;rounded=0;" vertex="1" parent="mvioNwK95yMqdUQ73LqQ-36">
          <mxGeometry x="333.98" y="1600.02" width="60" height="30" as="geometry" />
        </mxCell>
        <mxCell id="YSKUlMTrCHVZmDdGb3bU-197" value="Yes" style="text;html=1;align=center;verticalAlign=middle;whiteSpace=wrap;rounded=0;" vertex="1" parent="mvioNwK95yMqdUQ73LqQ-36">
          <mxGeometry x="338.98" y="1710.02" width="60" height="30" as="geometry" />
        </mxCell>
        <mxCell id="YSKUlMTrCHVZmDdGb3bU-198" value="No" style="text;html=1;align=center;verticalAlign=middle;whiteSpace=wrap;rounded=0;" vertex="1" parent="mvioNwK95yMqdUQ73LqQ-36">
          <mxGeometry x="441.25" y="1530" width="60" height="30" as="geometry" />
        </mxCell>
        <mxCell id="YSKUlMTrCHVZmDdGb3bU-199" value="No" style="text;html=1;align=center;verticalAlign=middle;whiteSpace=wrap;rounded=0;" vertex="1" parent="mvioNwK95yMqdUQ73LqQ-36">
          <mxGeometry x="457.25" y="1640" width="60" height="30" as="geometry" />
        </mxCell>
        <mxCell id="YSKUlMTrCHVZmDdGb3bU-201" value="Yes" style="text;html=1;align=center;verticalAlign=middle;whiteSpace=wrap;rounded=0;" vertex="1" parent="mvioNwK95yMqdUQ73LqQ-36">
          <mxGeometry x="332.5" y="1878.02" width="60" height="30" as="geometry" />
        </mxCell>
        <mxCell id="YSKUlMTrCHVZmDdGb3bU-202" value="No" style="text;html=1;align=center;verticalAlign=middle;whiteSpace=wrap;rounded=0;" vertex="1" parent="mvioNwK95yMqdUQ73LqQ-36">
          <mxGeometry x="263.99" y="1810" width="60" height="30" as="geometry" />
        </mxCell>
        <mxCell id="YSKUlMTrCHVZmDdGb3bU-205" style="edgeStyle=orthogonalEdgeStyle;rounded=0;orthogonalLoop=1;jettySize=auto;html=1;entryX=0.5;entryY=1;entryDx=0;entryDy=0;" edge="1" parent="mvioNwK95yMqdUQ73LqQ-36" source="YSKUlMTrCHVZmDdGb3bU-203" target="YSKUlMTrCHVZmDdGb3bU-94">
          <mxGeometry relative="1" as="geometry" />
        </mxCell>
        <mxCell id="YSKUlMTrCHVZmDdGb3bU-203" value="" style="ellipse;whiteSpace=wrap;html=1;aspect=fixed;" vertex="1" parent="mvioNwK95yMqdUQ73LqQ-36">
          <mxGeometry x="394.49" y="1970" width="10" height="10" as="geometry" />
        </mxCell>
        <mxCell id="YSKUlMTrCHVZmDdGb3bU-308" style="edgeStyle=orthogonalEdgeStyle;rounded=0;orthogonalLoop=1;jettySize=auto;html=1;entryX=0.5;entryY=0;entryDx=0;entryDy=0;" edge="1" parent="mvioNwK95yMqdUQ73LqQ-36" source="YSKUlMTrCHVZmDdGb3bU-306" target="mvioNwK95yMqdUQ73LqQ-69">
          <mxGeometry relative="1" as="geometry" />
        </mxCell>
        <mxCell id="YSKUlMTrCHVZmDdGb3bU-306" value="" style="ellipse;whiteSpace=wrap;html=1;aspect=fixed;" vertex="1" parent="mvioNwK95yMqdUQ73LqQ-36">
          <mxGeometry x="395.52" y="2380" width="10" height="10" as="geometry" />
        </mxCell>
        <mxCell id="YSKUlMTrCHVZmDdGb3bU-311" style="edgeStyle=orthogonalEdgeStyle;rounded=0;orthogonalLoop=1;jettySize=auto;html=1;entryX=0;entryY=0.5;entryDx=0;entryDy=0;" edge="1" parent="mvioNwK95yMqdUQ73LqQ-36" source="YSKUlMTrCHVZmDdGb3bU-310" target="YSKUlMTrCHVZmDdGb3bU-306">
          <mxGeometry relative="1" as="geometry">
            <mxPoint x="390" y="2385" as="targetPoint" />
          </mxGeometry>
        </mxCell>
        <mxCell id="YSKUlMTrCHVZmDdGb3bU-310" value="" style="ellipse;whiteSpace=wrap;html=1;aspect=fixed;" vertex="1" parent="mvioNwK95yMqdUQ73LqQ-36">
          <mxGeometry x="190.76" y="2380" width="10" height="10" as="geometry" />
        </mxCell>
        <mxCell id="mvioNwK95yMqdUQ73LqQ-70" value="&lt;font data-font-src=&quot;https://fonts.googleapis.com/css?family=Sarabun&quot; face=&quot;Sarabun&quot;&gt;โจทย์ปัญหา&lt;/font&gt;" style="swimlane;whiteSpace=wrap;html=1;" parent="WIyWlLk6GJQsqaUBKTNV-1" vertex="1">
          <mxGeometry x="-720" y="320" width="640" height="240" as="geometry" />
        </mxCell>
        <mxCell id="mvioNwK95yMqdUQ73LqQ-71" value="&lt;font data-font-src=&quot;https://fonts.googleapis.com/css?family=Sarabun&quot; face=&quot;Sarabun&quot; style=&quot;font-size: 14px;&quot;&gt;จงเขียน Flowchart เพื่อแสดงขั้นตอนการทำงาน ของเครื่องขายน้ำอัตโนมัติที่ชื่อว่า &quot;ตะพาบลอย&quot;&lt;br&gt;โดยจะต้องมีสินค้าดังนี้&lt;br&gt;&lt;u&gt;ประเภทน้ำ&lt;span style=&quot;white-space: pre;&quot;&gt;&#x9;&lt;/span&gt;&lt;span style=&quot;white-space: pre;&quot;&gt;&#x9;&lt;/span&gt;&lt;span style=&quot;white-space: pre;&quot;&gt;&#x9;&lt;/span&gt;&lt;span style=&quot;white-space: pre;&quot;&gt;&#x9;&lt;/span&gt;&lt;span style=&quot;white-space: pre;&quot;&gt;&#x9;&lt;/span&gt;&lt;span style=&quot;white-space: pre;&quot;&gt;&#x9;&lt;span style=&quot;white-space: pre;&quot;&gt;&#x9;&lt;/span&gt;ข&lt;/span&gt;นม&lt;/u&gt;&lt;br&gt;&lt;span style=&quot;white-space: pre;&quot;&gt;&#x9;&lt;/span&gt;- โค้ก กระป๋องละ 10 บาท&lt;span style=&quot;white-space: pre;&quot;&gt;&#x9;&lt;/span&gt;&lt;span style=&quot;white-space: pre;&quot;&gt;&#x9;&lt;/span&gt;&lt;span style=&quot;white-space: pre;&quot;&gt;&#x9;&lt;/span&gt;&lt;span style=&quot;white-space: pre;&quot;&gt;&#x9;&lt;/span&gt;- เมล็ดทานตะวัน 13 บาท&lt;br&gt;&lt;span style=&quot;white-space: pre;&quot;&gt;&#x9;&lt;/span&gt;- น้ำเขียว กระป๋องละ 12 บาท&lt;span style=&quot;white-space: pre;&quot;&gt;&#x9;&lt;/span&gt;&lt;span style=&quot;white-space: pre;&quot;&gt;&#x9;&lt;/span&gt;&lt;span style=&quot;white-space: pre;&quot;&gt;&#x9;&lt;/span&gt;- ถั่วแปบ 20 บาท&lt;br&gt;&lt;span style=&quot;white-space: pre;&quot;&gt;&#x9;&lt;/span&gt;- อเมริกาโน่ 30 บาท&lt;span style=&quot;white-space: pre;&quot;&gt;&#x9;&lt;/span&gt;&lt;span style=&quot;white-space: pre;&quot;&gt;&#x9;&lt;/span&gt;&lt;span style=&quot;white-space: pre;&quot;&gt;&#x9;&lt;/span&gt;&lt;span style=&quot;white-space: pre;&quot;&gt;&#x9;&lt;/span&gt;&lt;span style=&quot;white-space: pre;&quot;&gt;&#x9;&lt;/span&gt;- จิ้นส้มหมก 15 บาท&lt;br&gt;&lt;span style=&quot;white-space: pre;&quot;&gt;&#x9;&lt;/span&gt;- ลาเต้ หวานเจี๊ยบ 35 บาท&lt;span style=&quot;white-space: pre;&quot;&gt;&#x9;&lt;/span&gt;&lt;br&gt;&lt;br&gt;&lt;u&gt;สิ่งที่ระบบควรจะทำได้&lt;/u&gt;&lt;br&gt;&lt;span style=&quot;white-space: pre;&quot;&gt;&#x9;&lt;/span&gt;- ลูกค้าเลือกสินค้า, ระบบจะต้องรวมยอดขาย และรวมรายการสินค้าทั้งหมดที่ลูกค้าเลือก&lt;br&gt;&lt;span style=&quot;white-space: pre;&quot;&gt;&#x9;&lt;/span&gt;- สรุปยอดว่าเหลือเงินในตู้อีกเท่าไหร่ เหลือเหรียญอะไรบ้าง? ธนบัตรอะไรบ้าง? อย่างละเท่าไหร่?&lt;br&gt;&lt;br&gt;&lt;br&gt;&lt;/font&gt;" style="text;html=1;align=left;verticalAlign=middle;resizable=0;points=[];autosize=1;strokeColor=none;fillColor=none;fontSize=14;" parent="mvioNwK95yMqdUQ73LqQ-70" vertex="1">
          <mxGeometry x="25" y="30" width="580" height="240" as="geometry" />
        </mxCell>
      </root>
    </mxGraphModel>
  </diagram>
</mxfile>
